# xmcd CD database file
#
# Track frame offsets:
#	150
#	35682
#	75081
#	78885
#	109407
#	137169
#	158868
#	180282
#	208532
#	242886
#
# Disc length: 3430 seconds
#
# Revision: 0
# Processed by: cddbd v1.5.1PL0 Copyright (c) Steve Scherf et al.
# Submitted via: CDex 1.50
#
DISCID=760d640a
DTITLE=Blair's Bunch - Encore!
DYEAR=1900
DGENRE=Jazz
TTITLE0=In The Groove
TTITLE1=Round Mid-Night
TTITLE2=Nag Me Not II
TTITLE3=The Lion's Den
TTITLE4=Afro Blue
TTITLE5=The Street Scene
TTITLE6=Planet Claire
TTITLE7=The Chicken
TTITLE8=6 Is Enough
TTITLE9=Hypocrisy Personified
EXTD=
EXTT0=
EXTT1=
EXTT2=
EXTT3=
EXTT4=
EXTT5=
EXTT6=
EXTT7=
EXTT8=
EXTT9=
PLAYORDER=
